<?xml version="1.0" encoding="UTF-8" standalone="no"?>
<!-- Created with Inkscape (http://www.inkscape.org/) -->

<svg
   xmlns:dc="http://purl.org/dc/elements/1.1/"
   xmlns:cc="http://creativecommons.org/ns#"
   xmlns:rdf="http://www.w3.org/1999/02/22-rdf-syntax-ns#"
   xmlns:svg="http://www.w3.org/2000/svg"
   xmlns="http://www.w3.org/2000/svg"
   xmlns:xlink="http://www.w3.org/1999/xlink"
   xmlns:sodipodi="http://sodipodi.sourceforge.net/DTD/sodipodi-0.dtd"
   xmlns:inkscape="http://www.inkscape.org/namespaces/inkscape"
   version="1.1"
   id="svg869"
   width="95"
   height="180"
   viewBox="0 0 95 180"
   sodipodi:docname="iaml_verona_trasparent.svg"
   inkscape:version="0.92.5 (2060ec1f9f, 2020-04-08)"
   enable-background="new">
  <metadata
     id="metadata875">
    <rdf:RDF>
      <cc:Work
         rdf:about="">
        <dc:format>image/svg+xml</dc:format>
        <dc:type
           rdf:resource="http://purl.org/dc/dcmitype/StillImage" />
        <dc:title></dc:title>
      </cc:Work>
    </rdf:RDF>
  </metadata>
  <defs
     id="defs873">
    <filter
       inkscape:collect="always"
       style="color-interpolation-filters:sRGB"
       id="filter959">
      <feBlend
         inkscape:collect="always"
         mode="color-burn"
         in2="BackgroundImage"
         id="feBlend961" />
    </filter>
    <clipPath
       clipPathUnits="userSpaceOnUse"
       id="clipPath1204">
      <use
         x="0"
         y="0"
         xlink:href="#g1200"
         id="use1206"
         width="100%"
         height="100%" />
    </clipPath>
  </defs>
  <sodipodi:namedview
     pagecolor="#000000"
     bordercolor="#666666"
     borderopacity="1"
     objecttolerance="10"
     gridtolerance="10"
     guidetolerance="10"
     inkscape:pageopacity="0"
     inkscape:pageshadow="2"
     inkscape:window-width="2189"
     inkscape:window-height="1359"
     id="namedview871"
     showgrid="false"
     inkscape:zoom="5.6568542"
     inkscape:cx="-21.085391"
     inkscape:cy="80.388461"
     inkscape:window-x="104"
     inkscape:window-y="54"
     inkscape:window-maximized="0"
     inkscape:current-layer="layer5"
     showguides="true"
     inkscape:guide-bbox="true"
     inkscape:object-paths="true"
     inkscape:snap-intersection-paths="true"
     inkscape:snap-global="false"
     inkscape:pagecheckerboard="true" />
  <g
     inkscape:groupmode="layer"
     id="layer9"
     inkscape:label="tvml"
     style="display:none"
     sodipodi:insensitive="true">
    <g
       id="layer4"
       inkscape:label="tvml"
       style="display:inline"
       transform="matrix(0.53046782,0,0,0.53046782,-6.6239494,30.660198)"
       inkscape:export-xdpi="1092.2906"
       inkscape:export-ydpi="1092.2906">
      <g
         id="g1098"
         transform="matrix(1.3554748,0,0,1.3554748,-35.57605,-92.035382)">
        <text
           inkscape:export-ydpi="794.01471"
           inkscape:export-xdpi="794.01471"
           id="text6260"
           y="257.19193"
           x="77.06971"
           style="font-style:normal;font-variant:normal;font-weight:bold;font-stretch:normal;font-size:156.93025208px;line-height:0;font-family:sans-serif;-inkscape-font-specification:'sans-serif Bold';letter-spacing:0px;word-spacing:0px;opacity:0.93000034;fill:#ffffff;fill-opacity:1;stroke:none;stroke-width:3.9232564"
           xml:space="preserve"><tspan
             style="font-style:normal;font-variant:normal;font-weight:bold;font-stretch:normal;font-size:15.69302559px;line-height:0;font-family:sans-serif;-inkscape-font-specification:'sans-serif Bold';fill:#ffffff;stroke-width:3.9232564"
             y="257.19193"
             x="77.06971"
             id="tspan6258"
             sodipodi:role="line">T </tspan><tspan
             id="tspan6286"
             style="font-style:normal;font-variant:normal;font-weight:bold;font-stretch:normal;font-size:15.69302559px;line-height:0;font-family:sans-serif;-inkscape-font-specification:'sans-serif Bold';fill:#ffffff;stroke-width:3.9232564"
             y="293.88049"
             x="77.06971"
             sodipodi:role="line" /></text>
        <text
           inkscape:export-ydpi="794.01471"
           inkscape:export-xdpi="794.01471"
           transform="scale(0.92887252,1.076574)"
           id="text6260-4"
           y="238.85004"
           x="109.77088"
           style="font-style:normal;font-variant:normal;font-weight:bold;font-stretch:normal;font-size:145.76821899px;line-height:0;font-family:sans-serif;-inkscape-font-specification:'sans-serif Bold';letter-spacing:0px;word-spacing:0px;display:inline;opacity:0.93000034;fill:#ffffff;fill-opacity:1;stroke:none;stroke-width:3.64420533"
           xml:space="preserve"><tspan
             style="font-style:normal;font-variant:normal;font-weight:bold;font-stretch:normal;font-size:14.57682133px;line-height:0;font-family:sans-serif;-inkscape-font-specification:'sans-serif Bold';fill:#ffffff;stroke-width:3.64420533"
             y="238.85004"
             x="109.77088"
             id="tspan6258-8"
             sodipodi:role="line">M</tspan></text>
        <text
           inkscape:export-ydpi="794.01471"
           inkscape:export-xdpi="794.01471"
           transform="scale(0.9582332,1.0435873)"
           id="text6290"
           y="246.50136"
           x="93.313225"
           style="font-style:normal;font-weight:normal;font-size:10.02505302px;line-height:1.25;font-family:sans-serif;letter-spacing:0px;word-spacing:0px;opacity:0.93000034;fill:#ffffff;fill-opacity:1;stroke:none;stroke-width:3.75939465"
           xml:space="preserve"><tspan
             style="font-style:normal;font-variant:normal;font-weight:bold;font-stretch:normal;font-size:15.03757858px;font-family:sans-serif;-inkscape-font-specification:'sans-serif Bold';fill:#ffffff;stroke-width:3.75939465"
             y="246.50136"
             x="93.313225"
             id="tspan6288"
             sodipodi:role="line">V</tspan></text>
        <text
           inkscape:export-ydpi="794.01471"
           inkscape:export-xdpi="794.01471"
           transform="scale(1.0417802,0.95989537)"
           id="text6260-4-5"
           y="267.8678"
           x="110.96835"
           style="font-style:normal;font-variant:normal;font-weight:bold;font-stretch:normal;font-size:163.48683167px;line-height:0;font-family:sans-serif;-inkscape-font-specification:'sans-serif Bold';letter-spacing:0px;word-spacing:0px;display:inline;opacity:0.93000034;fill:#ffffff;fill-opacity:1;stroke:none;stroke-width:4.0871706"
           xml:space="preserve"><tspan
             style="font-style:normal;font-variant:normal;font-weight:bold;font-stretch:normal;font-size:16.3486824px;line-height:0;font-family:sans-serif;-inkscape-font-specification:'sans-serif Bold';fill:#ffffff;stroke-width:4.0871706"
             y="267.8678"
             x="110.96835"
             id="tspan6258-8-0"
             sodipodi:role="line">L</tspan></text>
      </g>
    </g>
  </g>
  <g
     inkscape:groupmode="layer"
     id="layer3"
     inkscape:label="bottle"
     style="display:inline;filter:url(#filter959)" />
  <g
     style="display:inline"
     inkscape:label="inner botto top empty"
     id="g1730"
     inkscape:groupmode="layer" />
  <g
     inkscape:groupmode="layer"
     id="layer11"
     inkscape:label="wave"
     style="display:inline">
    <g
       id="g549"
       transform="translate(0.49999987,-39.952499)"
       style="fill:#3a3a3a;fill-opacity:1;stroke:none;stroke-opacity:1"
       inkscape:export-xdpi="1092.2906"
       inkscape:export-ydpi="1092.2906">
      <g
         id="g531"
         transform="translate(0,-952.36218)"
         style="fill:#3a3a3a;fill-opacity:1;stroke:none;stroke-opacity:1" />
    </g>
  </g>
  <g
     inkscape:groupmode="layer"
     id="layer2"
     inkscape:label="bubbles"
     style="display:none">
    <path
       transform="translate(0.49999987,-992.31468)"
       id="path529"
       overflow="visible"
       display="inline"
       visibility="visible"
       marker="none"
       d="m 45.440419,1053.1882 c -1.064407,0 -1.934192,0.8698 -1.934192,1.9342 0,1.0644 0.869785,1.9342 1.934192,1.9342 1.064407,0 1.934192,-0.8698 1.934192,-1.9342 0,-1.0644 -0.869785,-1.9342 -1.934192,-1.9342 z m 0,0.6448 c 0.715965,0 1.289461,0.5734 1.289461,1.2894 0,0.716 -0.573496,1.2895 -1.289461,1.2895 -0.715964,0 -1.289461,-0.5735 -1.289461,-1.2895 0,-0.716 0.573497,-1.2894 1.289461,-1.2894 z m 5.48021,2.9013 c -1.242444,0 -2.256557,1.014 -2.256557,2.2565 0,1.2424 1.014113,2.2566 2.256557,2.2566 1.242444,0 2.256557,-1.0142 2.256557,-2.2566 0,-1.2425 -1.014113,-2.2565 -2.256557,-2.2565 z m 0,0.6447 c 0.894002,0 1.611826,0.7178 1.611826,1.6118 0,0.894 -0.717824,1.6118 -1.611826,1.6118 -0.894002,0 -1.611826,-0.7178 -1.611826,-1.6118 0,-0.894 0.717824,-1.6118 1.611826,-1.6118 z m -5.802575,4.8355 c -1.954593,0 -3.546018,1.5914 -3.546018,3.546 0,1.9546 1.591425,3.546 3.546018,3.546 1.954593,0 3.546018,-1.5914 3.546018,-3.546 0,-1.9546 -1.591425,-3.546 -3.546018,-3.546 z m 0,0.6447 c 1.606151,0 2.901288,1.2951 2.901288,2.9013 0,1.6062 -1.295137,2.9013 -2.901288,2.9013 -1.606151,0 -2.901287,-1.2951 -2.901287,-2.9013 0,-1.6062 1.295136,-2.9013 2.901287,-2.9013 z m 2.578922,8.3815 c -2.666755,0 -4.835479,2.1687 -4.835479,4.8355 0,2.6667 2.168724,4.8355 4.835479,4.8355 2.666756,0 4.835479,-2.1688 4.835479,-4.8355 0,-2.6668 -2.168723,-4.8355 -4.835479,-4.8355 z m 0,0.6447 c 2.318318,0 4.190749,1.8725 4.190749,4.1908 0,2.3183 -1.872431,4.1907 -4.190749,4.1907 -2.318317,0 -4.190749,-1.8724 -4.190749,-4.1907 0,-2.3183 1.872432,-4.1908 4.190749,-4.1908 z"
       style="color:#000000;text-indent:0;text-transform:none;direction:ltr;baseline-shift:baseline;display:inline;overflow:visible;visibility:visible;fill:#3a3a3a;fill-opacity:1;stroke:none;stroke-width:0.32236531;stroke-opacity:1;enable-background:accumulate"
       inkscape:connector-curvature="0"
       sodipodi:nodetypes="ssssssssssssssssssssssssssssssssssssssss" />
  </g>
  <g
     inkscape:groupmode="layer"
     id="layer5"
     inkscape:label="NN"
     style="display:inline">
    <g
       id="g1290"
       inkscape:export-xdpi="1891.84"
       inkscape:export-ydpi="1891.84"
       style="fill:#e71380;fill-opacity:1"
       transform="translate(-1.5909903,-51.442019)">
      <g
         clip-path="url(#clipPath1204)"
         id="g1202"
         style="fill:#e71380;fill-opacity:1">
        <g
           id="g1200"
           inkscape:label="Clip"
           style="fill:#e71380;fill-opacity:1">
          <g
             style="display:inline;opacity:0.93000034;fill:#e71380;fill-opacity:1"
             inkscape:export-ydpi="794.01471"
             inkscape:export-xdpi="794.01471"
             id="g76"
             transform="matrix(0.5952128,0,0,0.5952128,17.425116,100.72184)">
            <g
               style="fill:#e71380;fill-opacity:1"
               id="g74">
              <path
                 inkscape:connector-curvature="0"
                 id="polygon2"
                 d="m 48.094,14.108 v 30.29 -0.013 l -0.037,5.61 0.037,7.031 V 84.771 L 40.327,89.265 21.869,78.608 V 68.196 L 10.162,61.437 V 40.123 L 21.869,33.364 V 21.391 L 40.329,10.733 49.048,15.759 50,14.108 H 48.094 50 L 50.952,12.457 40.327,6.333 18.058,19.19 V 31.163 L 6.35,37.923 v 25.714 l 11.708,6.76 V 80.809 L 40.329,93.667 51.906,86.97 V 56.997 l -0.038,-6.996 0.038,-5.59 V 13.007 L 50.952,12.457 50,14.108 Z"
                 style="fill:#e71380;fill-opacity:1" />
              <path
                 inkscape:connector-curvature="0"
                 id="polyline4"
                 d="m 19.042,33.931 6.464,3.573 1.844,-3.336 -6.464,-3.572"
                 style="fill:#e71380;fill-opacity:1" />
              <path
                 inkscape:connector-curvature="0"
                 id="ellipse6"
                 d="m 29.151999,35.757999 a 2.8659999,2.8659999 0 0 1 -2.866,2.866 2.8659999,2.8659999 0 0 1 -2.866,-2.866 2.8659999,2.8659999 0 0 1 2.866,-2.866 2.8659999,2.8659999 0 0 1 2.866,2.866 z"
                 style="fill:#e71380;fill-opacity:1"
                 transform="matrix(0.4837,-0.8752,0.8752,0.4837,-17.7249,41.4675)" />
              <path
                 style="fill:#e71380;fill-opacity:1"
                 id="path8"
                 d="m 24.715,38.6 c -1.567,-0.866 -2.137,-2.846 -1.271,-4.413 0.866,-1.567 2.846,-2.137 4.413,-1.271 1.567,0.866 2.137,2.846 1.271,4.413 -0.866,1.566 -2.846,2.137 -4.413,1.271 -1.566,-0.866 1.567,0.866 0,0 z m 2.773,-5.017 c -1.199,-0.663 -2.714,-0.227 -3.377,0.973 -0.663,1.2 -0.227,2.714 0.973,3.377 1.2,0.663 2.714,0.227 3.377,-0.973 0.663,-1.2 0.227,-2.714 -0.973,-3.377 -1.199,-0.663 1.2,0.663 0,0 z"
                 inkscape:connector-curvature="0" />
              <path
                 inkscape:connector-curvature="0"
                 id="polyline10"
                 d="m 20.787,71.015 6.382,-3.057 -1.646,-3.437 -6.383,3.057"
                 style="fill:#e71380;fill-opacity:1" />
              <path
                 inkscape:connector-curvature="0"
                 id="ellipse12"
                 d="m 29.066001,66.308998 a 2.8659999,2.8659999 0 0 1 -2.866,2.866 2.8659999,2.8659999 0 0 1 -2.866,-2.866 2.8659999,2.8659999 0 0 1 2.866,-2.866 2.8659999,2.8659999 0 0 1 2.866,2.866 z"
                 style="fill:#e71380;fill-opacity:1"
                 transform="matrix(0.9019,-0.432,0.432,0.9019,-26.076,17.8262)" />
              <path
                 style="fill:#e71380;fill-opacity:1"
                 id="path14"
                 d="m 27.602,69.238 c -1.615,0.773 -3.558,0.089 -4.331,-1.526 -0.773,-1.615 -0.089,-3.558 1.526,-4.331 1.615,-0.773 3.558,-0.089 4.331,1.526 0.774,1.614 0.089,3.557 -1.526,4.331 -1.614,0.773 1.615,-0.774 0,0 z m -2.476,-5.17 c -1.236,0.592 -1.76,2.079 -1.167,3.314 0.592,1.236 2.079,1.76 3.314,1.167 1.236,-0.592 1.76,-2.079 1.167,-3.315 -0.591,-1.234 -2.078,-1.758 -3.314,-1.166 -1.236,0.593 1.236,-0.592 0,0 z"
                 inkscape:connector-curvature="0" />
              <path
                 inkscape:connector-curvature="0"
                 id="polygon16"
                 d="m 39.949,73.915 v -14.01 l -8.326,-3.772 v -9.464 l 8.326,-5.593 V 27.545 l -4.543,-3.502 -2.327,3.019 3.058,2.358 v 9.625 l -8.325,5.593 V 58.59 l 8.325,3.773 v 9.926 l -3.429,3.287 2.637,2.751 z"
                 style="fill:#e71380;fill-opacity:1" />
              <path
                 inkscape:connector-curvature="0"
                 id="ellipse18"
                 d="m 37.236998,25.652 a 2.8659999,2.8659999 0 0 1 -2.866,2.866 2.8659999,2.8659999 0 0 1 -2.866,-2.866 2.8659999,2.8659999 0 0 1 2.866,-2.866 2.8659999,2.8659999 0 0 1 2.866,2.866 z"
                 style="fill:#e71380;fill-opacity:1"
                 transform="matrix(0.6105,-0.792,0.792,0.6105,-6.9293,37.2131)" />
              <path
                 style="fill:#e71380;fill-opacity:1"
                 id="path20"
                 d="m 32.388,28.224 c 1.418,1.093 3.461,0.829 4.554,-0.589 1.093,-1.418 0.829,-3.461 -0.589,-4.554 -1.418,-1.093 -3.461,-0.829 -4.554,0.589 -1.093,1.418 -0.829,3.46 0.589,4.554 1.418,1.092 -1.418,-1.094 0,0 z m 3.5,-4.54 c 1.085,0.837 1.288,2.4 0.451,3.485 -0.837,1.085 -2.4,1.288 -3.485,0.451 -1.085,-0.837 -1.288,-2.4 -0.451,-3.485 0.836,-1.086 2.399,-1.288 3.485,-0.451 1.085,0.836 -1.086,-0.837 0,0 z"
                 inkscape:connector-curvature="0" />
              <path
                 inkscape:connector-curvature="0"
                 id="ellipse22"
                 d="m 37.009001,76.838997 a 2.8659999,2.8659999 0 0 1 -2.865999,2.866 2.8659999,2.8659999 0 0 1 -2.866,-2.866 2.8659999,2.8659999 0 0 1 2.866,-2.866 2.8659999,2.8659999 0 0 1 2.865999,2.866 z"
                 style="fill:#e71380;fill-opacity:1"
                 transform="matrix(0.722,-0.6919,0.6919,0.722,-43.6733,44.9864)" />
              <path
                 style="fill:#e71380;fill-opacity:1"
                 id="path24"
                 d="m 31.897,74.495 c 1.293,-1.239 3.352,-1.195 4.591,0.098 1.239,1.293 1.195,3.352 -0.098,4.591 -1.293,1.239 -3.352,1.195 -4.591,-0.098 -1.239,-1.293 -1.195,-3.352 0.098,-4.591 1.292,-1.239 -1.293,1.239 0,0 z m 3.966,4.138 c 0.989,-0.948 1.023,-2.524 0.075,-3.513 -0.948,-0.989 -2.524,-1.023 -3.513,-0.075 -0.99,0.948 -1.023,2.524 -0.075,3.513 0.948,0.99 2.523,1.023 3.513,0.075 0.989,-0.948 -0.99,0.948 0,0 z"
                 inkscape:connector-curvature="0" />
              <path
                 inkscape:connector-curvature="0"
                 id="polyline26"
                 d="m 8.256,53.283 h 7.32 v -3.811 h -7.32"
                 style="fill:#e71380;fill-opacity:1" />
              <path
                 inkscape:connector-curvature="0"
                 id="circle28"
                 d="m 18.279,51.377998 a 2.8659999,2.8659999 0 0 1 -2.866,2.866 2.8659999,2.8659999 0 0 1 -2.866,-2.866 2.8659999,2.8659999 0 0 1 2.866,-2.866 2.8659999,2.8659999 0 0 1 2.866,2.866 z"
                 style="fill:#e71380;fill-opacity:1" />
              <path
                 style="fill:#e71380;fill-opacity:1"
                 id="path30"
                 d="m 15.413,54.625 c -1.79,0 -3.247,-1.457 -3.247,-3.247 0,-1.79 1.457,-3.247 3.247,-3.247 1.79,0 3.247,1.457 3.247,3.247 0,1.79 -1.456,3.247 -3.247,3.247 -1.79,0 1.791,0 0,0 z m 0,-5.732 c -1.37,0 -2.485,1.114 -2.485,2.485 0,1.37 1.114,2.485 2.485,2.485 1.37,0 2.485,-1.114 2.485,-2.485 0,-1.371 -1.114,-2.485 -2.485,-2.485 -1.37,0 1.371,0 0,0 z"
                 inkscape:connector-curvature="0" />
              <path
                 inkscape:connector-curvature="0"
                 id="polyline32"
                 d="m 42.561,53.283 h 7.32 v -3.811 h -7.32"
                 style="fill:#e71380;fill-opacity:1" />
              <path
                 inkscape:connector-curvature="0"
                 id="circle34"
                 d="m 45.589999,51.377998 a 2.8659999,2.8659999 0 0 1 -2.866,2.866 2.8659999,2.8659999 0 0 1 -2.866,-2.866 2.8659999,2.8659999 0 0 1 2.866,-2.866 2.8659999,2.8659999 0 0 1 2.866,2.866 z"
                 style="fill:#e71380;fill-opacity:1" />
              <path
                 style="fill:#e71380;fill-opacity:1"
                 id="path36"
                 d="m 42.724,54.625 c 1.79,0 3.247,-1.457 3.247,-3.247 0,-1.79 -1.457,-3.247 -3.247,-3.247 -1.79,0 -3.247,1.457 -3.247,3.247 0,1.79 1.456,3.247 3.247,3.247 1.79,0 -1.791,0 0,0 z m 0,-5.732 c 1.37,0 2.485,1.114 2.485,2.485 0,1.37 -1.114,2.485 -2.485,2.485 -1.37,0 -2.485,-1.114 -2.485,-2.485 0,-1.371 1.114,-2.485 2.485,-2.485 1.37,0 -1.371,0 0,0 z"
                 inkscape:connector-curvature="0" />
              <path
                 inkscape:connector-curvature="0"
                 id="polygon38"
                 d="M 50.952,15.759 50,14.108 h -1.906 v 30.306 l 0.038,5.589 -0.038,7.003 V 86.97 L 59.671,93.667 81.942,80.809 V 70.397 L 93.65,63.638 V 37.923 L 81.942,31.163 V 19.19 L 59.673,6.333 48.094,13.007 v 1.101 H 50 l 0.952,1.651 8.719,-5.026 18.46,10.658 v 11.973 l 11.707,6.759 V 61.437 L 78.131,68.196 V 78.608 L 59.673,89.265 51.906,84.771 V 57.016 l 0.038,-7.023 -0.038,-5.608 v 0.013 -30.29 H 50 Z"
                 style="fill:#e71380;fill-opacity:1" />
              <path
                 inkscape:connector-curvature="0"
                 id="polyline40"
                 d="m 79.115,30.596 -6.465,3.572 1.844,3.336 6.464,-3.573"
                 style="fill:#e71380;fill-opacity:1" />
              <path
                 inkscape:connector-curvature="0"
                 id="ellipse42"
                 d="m 76.579997,35.757999 a 2.8659999,2.8659999 0 0 1 -2.866,2.866 2.8659999,2.8659999 0 0 1 -2.866,-2.866 2.8659999,2.8659999 0 0 1 2.866,-2.866 2.8659999,2.8659999 0 0 1 2.866,2.866 z"
                 style="fill:#e71380;fill-opacity:1"
                 transform="matrix(0.8752,-0.4837,0.4837,0.8752,-8.0989,40.1191)" />
              <path
                 style="fill:#e71380;fill-opacity:1"
                 id="path44"
                 d="m 72.143,32.916 c 1.567,-0.866 3.547,-0.296 4.413,1.271 0.866,1.567 0.296,3.547 -1.271,4.413 -1.567,0.866 -3.547,0.296 -4.413,-1.271 -0.866,-1.568 -0.296,-3.547 1.271,-4.413 1.567,-0.866 -1.567,0.866 0,0 z m 2.773,5.016 c 1.199,-0.663 1.636,-2.177 0.973,-3.377 -0.663,-1.2 -2.177,-1.636 -3.377,-0.973 -1.2,0.663 -1.636,2.177 -0.973,3.377 0.663,1.2 2.178,1.636 3.377,0.973 1.199,-0.662 -1.199,0.663 0,0 z"
                 inkscape:connector-curvature="0" />
              <path
                 inkscape:connector-curvature="0"
                 id="polyline46"
                 d="m 80.86,67.578 -6.383,-3.057 -1.646,3.437 6.382,3.057"
                 style="fill:#e71380;fill-opacity:1" />
              <path
                 inkscape:connector-curvature="0"
                 id="ellipse48"
                 d="m 76.667002,66.308998 a 2.8659999,2.8659999 0 0 1 -2.865999,2.866 2.8659999,2.8659999 0 0 1 -2.866,-2.866 2.8659999,2.8659999 0 0 1 2.866,-2.866 2.8659999,2.8659999 0 0 1 2.865999,2.866 z"
                 style="fill:#e71380;fill-opacity:1"
                 transform="matrix(0.432,-0.9019,0.9019,0.432,-17.8854,104.2191)" />
              <path
                 style="fill:#e71380;fill-opacity:1"
                 id="path50"
                 d="m 75.203,63.381 c 1.615,0.773 2.299,2.717 1.526,4.331 -0.773,1.615 -2.717,2.299 -4.331,1.526 -1.615,-0.773 -2.299,-2.717 -1.526,-4.331 0.774,-1.615 2.717,-2.299 4.331,-1.526 1.615,0.773 -1.614,-0.773 0,0 z m -2.476,5.169 c 1.236,0.592 2.722,0.068 3.314,-1.167 0.592,-1.236 0.068,-2.722 -1.167,-3.314 -1.236,-0.592 -2.722,-0.069 -3.315,1.167 -0.592,1.236 -0.068,2.722 1.168,3.314 1.236,0.592 -1.236,-0.592 0,0 z"
                 inkscape:connector-curvature="0" />
              <path
                 inkscape:connector-curvature="0"
                 id="polygon52"
                 d="m 64.594,24.043 -4.543,3.502 v 13.531 l 8.326,5.593 v 9.464 l -8.326,3.772 v 14.01 l 4.604,4.412 2.638,-2.751 -3.43,-3.287 V 62.363 L 72.188,58.59 V 44.638 L 63.863,39.045 V 29.42 l 3.058,-2.358 -2.326,-3.019 z"
                 style="fill:#e71380;fill-opacity:1" />
              <path
                 inkscape:connector-curvature="0"
                 id="ellipse54"
                 d="m 68.494998,25.652 a 2.8659999,2.8659999 0 0 1 -2.866,2.866 2.8659999,2.8659999 0 0 1 -2.866,-2.866 2.8659999,2.8659999 0 0 1 2.866,-2.866 2.8659999,2.8659999 0 0 1 2.866,2.866 z"
                 style="fill:#e71380;fill-opacity:1"
                 transform="matrix(0.792,-0.6105,0.6105,0.792,-2.0106,45.4019)" />
              <path
                 style="fill:#e71380;fill-opacity:1"
                 id="path56"
                 d="m 63.647,23.08 c -1.418,1.093 -1.682,3.136 -0.589,4.554 1.093,1.418 3.136,1.682 4.554,0.589 1.418,-1.093 1.682,-3.136 0.589,-4.554 -1.093,-1.418 -3.136,-1.682 -4.554,-0.589 -1.418,1.093 1.418,-1.093 0,0 z m 3.499,4.54 c -1.085,0.837 -2.648,0.634 -3.485,-0.451 -0.837,-1.085 -0.634,-2.648 0.451,-3.485 1.085,-0.837 2.648,-0.634 3.485,0.451 0.837,1.085 0.635,2.648 -0.451,3.485 -1.085,0.836 1.086,-0.837 0,0 z"
                 inkscape:connector-curvature="0" />
              <path
                 inkscape:connector-curvature="0"
                 id="ellipse58"
                 d="m 68.723002,76.838997 a 2.8659999,2.8659999 0 0 1 -2.866,2.866 2.8659999,2.8659999 0 0 1 -2.866,-2.866 2.8659999,2.8659999 0 0 1 2.866,-2.866 2.8659999,2.8659999 0 0 1 2.866,2.866 z"
                 style="fill:#e71380;fill-opacity:1"
                 transform="matrix(0.6919,-0.722,0.722,0.6919,-35.1869,71.2213)" />
              <path
                 style="fill:#e71380;fill-opacity:1"
                 id="path60"
                 d="m 63.61,79.184 c -1.293,-1.239 -1.336,-3.298 -0.098,-4.591 1.239,-1.293 3.298,-1.336 4.591,-0.098 1.293,1.239 1.336,3.299 0.098,4.591 -1.239,1.293 -3.298,1.336 -4.591,0.098 -1.293,-1.239 1.293,1.238 0,0 z m 3.966,-4.139 c -0.989,-0.948 -2.565,-0.915 -3.513,0.075 -0.948,0.989 -0.915,2.565 0.075,3.513 0.99,0.948 2.565,0.915 3.513,-0.075 0.948,-0.989 0.914,-2.565 -0.075,-3.513 -0.989,-0.948 0.989,0.948 0,0 z"
                 inkscape:connector-curvature="0" />
              <path
                 inkscape:connector-curvature="0"
                 id="polyline62"
                 d="m 91.744,49.472 h -7.319 v 3.811 h 7.319"
                 style="fill:#e71380;fill-opacity:1" />
              <path
                 inkscape:connector-curvature="0"
                 id="circle64"
                 d="m 87.452998,51.377998 a 2.8659999,2.8659999 0 0 1 -2.866,2.866 2.8659999,2.8659999 0 0 1 -2.866,-2.866 2.8659999,2.8659999 0 0 1 2.866,-2.866 2.8659999,2.8659999 0 0 1 2.866,2.866 z"
                 style="fill:#e71380;fill-opacity:1" />
              <path
                 style="fill:#e71380;fill-opacity:1"
                 id="path66"
                 d="m 84.587,48.131 c 1.79,0 3.247,1.457 3.247,3.247 0,1.79 -1.457,3.247 -3.247,3.247 -1.79,0 -3.247,-1.457 -3.247,-3.247 0,-1.791 1.457,-3.247 3.247,-3.247 1.79,0 -1.79,0 0,0 z m 0,5.731 c 1.37,0 2.485,-1.114 2.485,-2.485 0,-1.37 -1.114,-2.485 -2.485,-2.485 -1.37,0 -2.485,1.114 -2.485,2.485 0,1.371 1.114,2.485 2.485,2.485 1.37,0 -1.371,0 0,0 z"
                 inkscape:connector-curvature="0" />
              <path
                 inkscape:connector-curvature="0"
                 id="polyline68"
                 d="m 57.439,49.472 h -7.32 v 3.811 h 7.32"
                 style="fill:#e71380;fill-opacity:1" />
              <path
                 inkscape:connector-curvature="0"
                 id="circle70"
                 d="m 60.142001,51.377998 a 2.8659999,2.8659999 0 0 1 -2.866,2.866 2.8659999,2.8659999 0 0 1 -2.866,-2.866 2.8659999,2.8659999 0 0 1 2.866,-2.866 2.8659999,2.8659999 0 0 1 2.866,2.866 z"
                 style="fill:#e71380;fill-opacity:1" />
              <path
                 style="fill:#e71380;fill-opacity:1"
                 id="path72"
                 d="m 57.276,48.131 c -1.79,0 -3.247,1.457 -3.247,3.247 0,1.79 1.457,3.247 3.247,3.247 1.79,0 3.247,-1.457 3.247,-3.247 0,-1.791 -1.456,-3.247 -3.247,-3.247 -1.791,0 1.791,0 0,0 z m 0,5.731 c -1.37,0 -2.485,-1.114 -2.485,-2.485 0,-1.37 1.114,-2.485 2.485,-2.485 1.371,0 2.485,1.114 2.485,2.485 0,1.371 -1.114,2.485 -2.485,2.485 -1.371,0 1.371,0 0,0 z"
                 inkscape:connector-curvature="0" />
            </g>
          </g>
        </g>
      </g>
    </g>
    <g
       id="flowRoot1066"
       style="font-style:normal;font-weight:normal;font-size:40px;line-height:1.25;font-family:sans-serif;letter-spacing:0px;word-spacing:0px;fill:#333333;fill-opacity:1;stroke:none"
       transform="matrix(0.15615271,0,0,0.15615271,-12.791899,23.504366)" />
  </g>
  <g
     inkscape:groupmode="layer"
     id="layer10"
     inkscape:label="vr"
     style="display:none"
     sodipodi:insensitive="true">
    <g
       id="layer6"
       inkscape:label="vr"
       transform="matrix(0.63167917,0,0,0.63167917,-16.957443,8.6357284)">
      <text
         xml:space="preserve"
         style="font-style:normal;font-weight:normal;font-size:10.58333302px;line-height:1.25;font-family:sans-serif;letter-spacing:0px;word-spacing:0px;display:inline;fill:#ffffff;fill-opacity:1;stroke:none;stroke-width:0.26458332"
         x="91.550102"
         y="36.712887"
         id="text1076"><tspan
           sodipodi:role="line"
           id="tspan1074"
           x="91.550102"
           y="36.712887"
           style="font-style:normal;font-variant:normal;font-weight:bold;font-stretch:normal;font-size:12.69999981px;font-family:sans-serif;-inkscape-font-specification:'sans-serif Bold';fill:#ffffff;stroke-width:0.26458332">VR</tspan></text>
    </g>
  </g>
</svg>
