<svg role="img" viewBox="0 0 24 24" xmlns="http://www.w3.org/2000/svg"><title>Meetup</title><path d="M 10.574219 2.902344 C 10.441406 2.902344 10.328125 2.949219 10.234375 3.046875 C 10.140625 3.140625 10.09375 3.253906 10.09375 3.386719 C 10.09375 3.519531 10.140625 3.636719 10.234375 3.730469 C 10.328125 3.824219 10.441406 3.871094 10.574219 3.871094 C 10.707031 3.871094 10.820312 3.824219 10.914062 3.730469 C 11.003906 3.636719 11.050781 3.519531 11.050781 3.386719 C 11.050781 3.253906 11.003906 3.140625 10.914062 3.046875 C 10.820312 2.949219 10.707031 2.902344 10.574219 2.902344 Z M 16.800781 3.386719 C 16.671875 3.386719 16.550781 3.410156 16.433594 3.460938 C 16.316406 3.511719 16.210938 3.578125 16.121094 3.671875 C 16.03125 3.761719 15.964844 3.867188 15.914062 3.984375 C 15.867188 4.101562 15.84375 4.226562 15.84375 4.355469 C 15.84375 4.484375 15.867188 4.605469 15.914062 4.726562 C 15.964844 4.84375 16.03125 4.949219 16.121094 5.039062 C 16.210938 5.128906 16.316406 5.199219 16.433594 5.25 C 16.550781 5.296875 16.671875 5.324219 16.800781 5.324219 C 16.925781 5.324219 17.050781 5.296875 17.167969 5.25 C 17.285156 5.199219 17.386719 5.128906 17.476562 5.039062 C 17.566406 4.949219 17.636719 4.84375 17.683594 4.726562 C 17.734375 4.605469 17.757812 4.484375 17.757812 4.355469 C 17.757812 4.226562 17.734375 4.101562 17.683594 3.984375 C 17.636719 3.867188 17.566406 3.761719 17.476562 3.671875 C 17.386719 3.578125 17.285156 3.511719 17.167969 3.460938 C 17.050781 3.410156 16.925781 3.386719 16.800781 3.386719 Z M 13.925781 5.324219 C 11.792969 5.324219 9.957031 6.714844 9.347656 8.75 C 7.589844 9 6.261719 10.511719 6.261719 12.339844 C 6.261719 12.914062 6.398438 13.480469 6.65625 13.992188 C 6.09375 14.683594 5.785156 15.542969 5.785156 16.453125 C 5.785156 18.230469 6.992188 19.765625 8.660156 20.199219 C 8.660156 20.238281 8.65625 20.28125 8.65625 20.324219 C 8.65625 22.457031 10.375 24.195312 12.488281 24.195312 C 13.378906 24.195312 14.21875 23.890625 14.898438 23.328125 C 15.472656 23.882812 16.230469 24.195312 17.039062 24.195312 C 18.492188 24.195312 19.738281 23.164062 20.066406 21.773438 C 20.09375 21.773438 20.125 21.773438 20.152344 21.773438 C 22.527344 21.773438 24.460938 19.820312 24.460938 17.417969 C 24.460938 16.578125 24.230469 15.777344 23.785156 15.078125 C 24.21875 14.59375 24.460938 13.96875 24.460938 13.304688 C 24.460938 12.082031 23.636719 11.046875 22.503906 10.742188 C 22.53125 10.546875 22.546875 10.351562 22.546875 10.160156 C 22.546875 7.761719 20.613281 5.804688 18.238281 5.804688 C 17.667969 5.804688 17.113281 5.917969 16.585938 6.140625 C 15.792969 5.605469 14.882812 5.324219 13.925781 5.324219 Z M 7.9375 6.289062 C 7.742188 6.289062 7.570312 6.359375 7.429688 6.503906 C 7.292969 6.644531 7.222656 6.816406 7.222656 7.015625 C 7.222656 7.214844 7.292969 7.386719 7.429688 7.53125 C 7.570312 7.671875 7.742188 7.742188 7.9375 7.742188 C 8.136719 7.742188 8.308594 7.671875 8.449219 7.53125 C 8.585938 7.386719 8.65625 7.214844 8.65625 7.015625 C 8.65625 6.816406 8.585938 6.644531 8.449219 6.503906 C 8.308594 6.359375 8.136719 6.289062 7.9375 6.289062 Z M 24.460938 8.710938 C 24.335938 8.710938 24.214844 8.734375 24.097656 8.785156 C 23.980469 8.832031 23.875 8.902344 23.785156 8.992188 C 23.695312 9.082031 23.625 9.1875 23.578125 9.308594 C 23.527344 9.425781 23.503906 9.550781 23.503906 9.675781 C 23.503906 9.804688 23.527344 9.929688 23.578125 10.046875 C 23.625 10.167969 23.695312 10.269531 23.785156 10.363281 C 23.875 10.453125 23.980469 10.523438 24.097656 10.570312 C 24.214844 10.621094 24.335938 10.644531 24.460938 10.644531 C 24.589844 10.644531 24.710938 10.621094 24.828125 10.570312 C 24.945312 10.523438 25.050781 10.453125 25.140625 10.363281 C 25.230469 10.269531 25.300781 10.167969 25.347656 10.046875 C 25.394531 9.929688 25.421875 9.804688 25.421875 9.675781 C 25.421875 9.550781 25.394531 9.425781 25.347656 9.308594 C 25.300781 9.1875 25.230469 9.082031 25.140625 8.992188 C 25.050781 8.902344 24.945312 8.832031 24.828125 8.785156 C 24.710938 8.734375 24.589844 8.710938 24.460938 8.710938 Z M 16.292969 9.675781 C 16.90625 9.675781 17.425781 10.070312 17.628906 10.617188 C 17.640625 10.640625 17.667969 10.648438 17.6875 10.632812 C 18.03125 10.324219 18.484375 10.164062 18.988281 10.164062 C 19.585938 10.164062 20.152344 10.582031 20.152344 11.550781 C 20.152344 12.640625 19.492188 13.609375 18.476562 15.96875 C 18.378906 16.195312 18.238281 16.597656 18.238281 16.933594 C 18.238281 17.359375 18.476562 17.902344 19.433594 17.902344 C 19.832031 17.902344 20.152344 18.226562 20.152344 18.628906 C 20.152344 19.03125 19.832031 19.355469 19.433594 19.355469 C 16.5 19.355469 16.320312 17.78125 16.320312 17.417969 C 16.320312 16.996094 16.355469 16.71875 16.46875 16.390625 C 16.496094 16.316406 18.179688 12.808594 18.195312 12.773438 C 18.222656 12.710938 18.238281 12.640625 18.238281 12.574219 C 18.234375 12.390625 18.128906 12.214844 17.949219 12.136719 C 17.707031 12.03125 17.425781 12.140625 17.320312 12.386719 C 17.320312 12.386719 15.140625 17.191406 15.054688 17.394531 C 14.871094 17.824219 14.375 18.019531 13.953125 17.832031 C 13.632812 17.691406 13.441406 17.378906 13.445312 17.046875 C 13.445312 16.9375 13.46875 16.824219 13.515625 16.71875 C 13.609375 16.5 14.847656 13.28125 14.847656 13.277344 C 14.871094 13.222656 14.882812 13.160156 14.882812 13.09375 C 14.882812 12.8125 14.65625 12.582031 14.375 12.582031 C 14.15625 12.582031 13.972656 12.71875 13.898438 12.914062 C 13.542969 13.855469 12.175781 17.511719 12.046875 17.90625 C 11.84375 18.5 11.285156 18.867188 10.675781 18.871094 C 10.507812 18.871094 10.335938 18.851562 10.167969 18.792969 C 9.386719 18.523438 8.960938 17.691406 9.21875 16.933594 C 9.40625 16.371094 10.746094 12.007812 10.921875 11.429688 C 11.148438 10.667969 11.683594 10.160156 12.757812 10.160156 C 13.539062 10.160156 14.128906 10.644531 14.609375 10.644531 C 14.976562 10.644531 15.335938 9.675781 16.292969 9.675781 Z M 26.855469 12.097656 C 26.726562 12.097656 26.613281 12.144531 26.519531 12.238281 C 26.425781 12.332031 26.378906 12.445312 26.378906 12.582031 C 26.378906 12.714844 26.425781 12.828125 26.519531 12.921875 C 26.613281 13.015625 26.726562 13.066406 26.855469 13.066406 C 26.988281 13.066406 27.101562 13.015625 27.195312 12.921875 C 27.289062 12.828125 27.335938 12.714844 27.335938 12.582031 C 27.335938 12.445312 27.289062 12.332031 27.195312 12.238281 C 27.101562 12.144531 26.988281 12.097656 26.855469 12.097656 Z M 4.347656 12.582031 C 4.21875 12.582031 4.097656 12.605469 3.980469 12.65625 C 3.863281 12.703125 3.761719 12.773438 3.671875 12.863281 C 3.582031 12.953125 3.511719 13.058594 3.460938 13.179688 C 3.414062 13.296875 3.390625 13.421875 3.390625 13.546875 C 3.390625 13.675781 3.414062 13.800781 3.460938 13.917969 C 3.511719 14.039062 3.582031 14.140625 3.671875 14.234375 C 3.761719 14.324219 3.863281 14.394531 3.980469 14.441406 C 4.097656 14.492188 4.21875 14.515625 4.347656 14.515625 C 4.472656 14.515625 4.597656 14.492188 4.714844 14.441406 C 4.832031 14.394531 4.933594 14.324219 5.023438 14.234375 C 5.113281 14.140625 5.183594 14.039062 5.230469 13.917969 C 5.28125 13.800781 5.304688 13.675781 5.304688 13.546875 C 5.304688 13.421875 5.28125 13.296875 5.230469 13.179688 C 5.183594 13.058594 5.113281 12.953125 5.023438 12.863281 C 4.933594 12.773438 4.832031 12.703125 4.714844 12.65625 C 4.597656 12.605469 4.472656 12.582031 4.347656 12.582031 Z M 25.660156 14.515625 C 25.460938 14.515625 25.292969 14.585938 25.152344 14.730469 C 25.011719 14.871094 24.941406 15.042969 24.941406 15.242188 C 24.941406 15.441406 25.011719 15.613281 25.152344 15.753906 C 25.292969 15.898438 25.460938 15.96875 25.660156 15.96875 C 25.859375 15.96875 26.027344 15.898438 26.167969 15.753906 C 26.308594 15.613281 26.378906 15.441406 26.378906 15.242188 C 26.378906 15.042969 26.308594 14.871094 26.167969 14.730469 C 26.027344 14.585938 25.859375 14.515625 25.660156 14.515625 Z M 7.222656 21.289062 C 7.089844 21.289062 6.976562 21.335938 6.882812 21.433594 C 6.789062 21.527344 6.742188 21.640625 6.742188 21.773438 C 6.742188 21.90625 6.789062 22.023438 6.882812 22.117188 C 6.976562 22.210938 7.089844 22.257812 7.222656 22.257812 C 7.351562 22.257812 7.464844 22.210938 7.558594 22.117188 C 7.652344 22.023438 7.699219 21.90625 7.699219 21.773438 C 7.699219 21.640625 7.652344 21.527344 7.558594 21.433594 C 7.464844 21.335938 7.351562 21.289062 7.222656 21.289062 Z M 21.589844 22.742188 C 21.460938 22.742188 21.339844 22.765625 21.222656 22.816406 C 21.105469 22.863281 21 22.933594 20.910156 23.027344 C 20.820312 23.117188 20.753906 23.222656 20.703125 23.339844 C 20.65625 23.457031 20.632812 23.582031 20.632812 23.710938 C 20.632812 23.839844 20.65625 23.960938 20.703125 24.078125 C 20.753906 24.199219 20.820312 24.304688 20.910156 24.394531 C 21 24.484375 21.105469 24.554688 21.222656 24.605469 C 21.339844 24.652344 21.460938 24.675781 21.589844 24.675781 C 21.714844 24.675781 21.839844 24.652344 21.957031 24.605469 C 22.074219 24.554688 22.175781 24.484375 22.265625 24.394531 C 22.355469 24.304688 22.425781 24.199219 22.472656 24.078125 C 22.523438 23.960938 22.546875 23.839844 22.546875 23.710938 C 22.546875 23.582031 22.523438 23.457031 22.472656 23.339844 C 22.425781 23.222656 22.355469 23.117188 22.265625 23.027344 C 22.175781 22.933594 22.074219 22.863281 21.957031 22.816406 C 21.839844 22.765625 21.714844 22.742188 21.589844 22.742188 Z M 14.644531 24.675781 C 14.445312 24.675781 14.277344 24.75 14.136719 24.890625 C 13.996094 25.03125 13.925781 25.203125 13.925781 25.402344 C 13.925781 25.605469 13.996094 25.773438 14.136719 25.917969 C 14.277344 26.058594 14.445312 26.128906 14.644531 26.128906 C 14.84375 26.128906 15.011719 26.058594 15.152344 25.917969 C 15.292969 25.773438 15.363281 25.605469 15.363281 25.402344 C 15.363281 25.203125 15.292969 25.03125 15.152344 24.890625 C 15.011719 24.75 14.84375 24.675781 14.644531 24.675781 Z M 14.644531 24.675781"/></svg>
